{"title":"Thor.2011.PL.BRRip.XviD-RLF","uid":6662765,"size":1295410427,"categoryP":"video","categoryS":"movies","magnet":"?xt=urn:btih:f8085b3620623574699a72bae0094788c530c05f&amp;dn=Thor.2011.PL.BRRip.XviD-RLF&amp;tr=udp%3A%2F%2Ftracker.openbittorrent.com%3A80&amp;tr=udp%3A%2F%2Fopen.demonii.com%3A1337&amp;tr=udp%3A%2F%2Ftracker.coppersurfer.tk%3A6969&amp;tr=udp%3A%2F%2Fexodus.desync.com%3A6969","seeders":0,"leechers":0,"uploader":"rlf-rls","files":-1,"time":1315574874,"description":"            Thor.2011.PL.BRRip.XviD-RLF\n            ~~~~~~~~~~~~~~~~~~~~~~~~~~~\n\n\nGeneral:\n\n\nComplete name                    : rlf-thor-pl.avi\nFormat                           : AVI\nFormat/Info                      : Audio Video Interleave\nFile size                        : 1.19 GiB\nDuration                         : 1h 54mn \nOverall bit rate                 : 1 483 Kbps\nLanguage                         : Polish\nSubs                             : English\nEncoder                          : Ralf\n\n\nVideo:\n\n                     \nFormat                           : MPEG-4 Visual\nFormat profile                   : Advanced Simple@L5\nFormat settings, BVOP            : 2\nFormat settings, QPel            : No\nFormat settings, GMC             : No warppoints\nFormat settings, Matrix          : H.263\nMuxing mode                      : Packed bitstream\nCodec ID                         : XVID\nDuration                         : 1h 54mn\nBit rate                         : 1 029 Kbps\nWidth                            : 640 pixels\nHeight                           : 272 pixels\nDisplay aspect ratio             : 2.35:1\nFrame rate                       : 23.976 fps\nColor space                      : YUV\nChroma subsampling               : 4:2:0\nBit depth                        : 8 bits\nScan type                        : Progressive\nBits/(Pixel*Frame)               : 0.247\nStream size                      : 845 MiB (69%)\n\n\nAudio:\n\n\nFormat                           : AC-3\nDuration                         : 1h 54mn\nBit rate                         : 448 Kbps\nChannel(s)                       : 6 channels\nChannel positions                : Front: L C R, Side: L R, LFE\nSampling rate                    : 48.0 KHz\nBit depth                        : 16 bits\nStream size                      : 368 MiB (30%)\nAlignment                        : Aligned on interleaves\nInterleave, duration             : 160 ms (3.84 video frames)\n                     \n\n\nMOVIE INFO:\n\nThe powerful but arrogant warrior Thor is cast out of the fantastic realm of \nAsgard and sent to live amongst  humans on Earth, where  he soon becomes one \nof their finest defenders.\n\n                                &lt;a href=&quot;\nhttp://www.imdb.com/title/tt0800369/&quot; rel=&quot;nofollow&quot; target=&quot;_NEW&quot;&gt;\nhttp://www.imdb.com/title/tt0800369/&lt;/a&gt; &lt;a href=&quot;\nhttp://www.filmweb.pl/film/Thor-2011-325418&quot; rel=&quot;nofollow&quot; target=&quot;_NEW&quot;&gt;\nhttp://www.filmweb.pl/film/Thor-2011-325418&lt;/a&gt;\n                                             \n\n\nSOURCE:\n\nFelony 720p.BluRay.x264 / PSiG (THX)\n\n\nSCREENS:\n &lt;a href=&quot;\nhttp://image.bayimg.com/fajmgaadp.jpg&quot; rel=&quot;nofollow&quot; target=&quot;_NEW&quot;&gt;\nhttp://image.bayimg.com/fajmgaadp.jpg&lt;/a&gt; &lt;a href=&quot;\nhttp://image.bayimg.com/fajmiaadp.jpg&quot; rel=&quot;nofollow&quot; target=&quot;_NEW&quot;&gt;\nhttp://image.bayimg.com/fajmiaadp.jpg&lt;/a&gt; &lt;a href=&quot;\nhttp://image.bayimg.com/fajmkaadp.jpg&quot; rel=&quot;nofollow&quot; target=&quot;_NEW&quot;&gt;\nhttp://image.bayimg.com/fajmkaadp.jpg&lt;/a&gt; &lt;a href=&quot;\nhttp://image.bayimg.com/fajmlaadp.jpg&quot; rel=&quot;nofollow&quot; target=&quot;_NEW&quot;&gt;\nhttp://image.bayimg.com/fajmlaadp.jpg&lt;/a&gt;","torrent":{"xt":"urn:btih:f8085b3620623574699a72bae0094788c530c05f","amp;dn":"Thor.2011.PL.BRRip.XviD-RLF","amp;tr":["udp%3A%2F%2Ftracker.openbittorrent.com%3A80","udp%3A%2F%2Fopen.demonii.com%3A1337","udp%3A%2F%2Ftracker.coppersurfer.tk%3A6969","udp%3A%2F%2Fexodus.desync.com%3A6969"],"infoHash":"f8085b3620623574699a72bae0094788c530c05f","infoHashBuffer":{"type":"Buffer","data":[248,8,91,54,32,98,53,116,105,154,114,186,224,9,71,136,197,48,192,95]},"announce":[],"urlList":[]}}